<svg width="150" height="271" viewBox="0 0 150 271" fill="none" xmlns="http://www.w3.org/2000/svg">
<rect width="150" height="271" fill="#E5E5E5"/>
<g id="randomIcon">
<path id="Vector 1" d="M105.28 58.1019C94.575 37.2035 65.688 39.1808 49.2136 58.1019C35.4258 73.9374 42.941 91.4497 20.873 87.8265C1.58449 84.6597 -0.691102 61.3846 2.97702 51.5873C30.0251 -20.6565 133.908 -10.659 147.438 42.3629C155.875 75.4243 123.938 109.431 118.201 162.214C112.464 214.997 83.7822 199.518 79.7107 189.889C66.1318 157.777 115.986 79.0003 105.28 58.1019Z" fill="#356C7D"/>
<path id="Ellipse 1" d="M123.236 243.783C121.15 258.269 107.716 268.321 93.2295 266.236C78.7434 264.15 68.6908 250.716 70.7765 236.23C72.8622 221.743 86.2963 211.691 100.783 213.776C115.269 215.862 125.321 229.296 123.236 243.783Z" fill="#356C7D"/>
</g>
</svg>
