<svg width="48" height="59" viewBox="0 0 48 59" fill="none" xmlns="http://www.w3.org/2000/svg">
<path d="M35.584 51.8289C35.1931 54.2356 32.5712 56.1812 29.413 55.7781C26.2548 55.375 24.3586 52.8528 24.7495 50.4461C25.1404 48.0395 27.7622 46.0939 30.9205 46.497C34.0787 46.9001 35.9749 49.4223 35.584 51.8289Z" stroke="#F4F8F8" stroke-width="3"/>
<path d="M33.0923 13.0213C29.8922 9.05712 21.2861 9.4322 16.3868 13.0213C12.2865 16.0252 14.5344 19.3471 7.95734 18.6598C2.20862 18.0591 1.51904 13.644 2.60712 11.7856C10.6304 -1.91833 41.588 -0.0219123 45.6457 10.0358C48.1759 16.3072 38.677 22.758 36.9938 32.7703C35.3106 42.7827 26.757 39.8465 25.5391 38.0201C21.4772 31.9288 36.2924 16.9855 33.0923 13.0213Z" stroke="#F4F8F8" stroke-width="3"/>
</svg>
