<svg width="54" height="97" viewBox="0 0 54 97" fill="none" xmlns="http://www.w3.org/2000/svg">
<rect width="54" height="97" fill="#E5E5E5"/>
<g id="randomIcon">
<path id="Vector 1" d="M37.2206 21.9999C33.6155 14.6611 23.8876 15.3554 18.3397 21.9999C13.6966 27.5608 16.2274 33.7105 8.79585 32.4382C2.3003 31.3261 1.53398 23.1527 2.76924 19.7122C11.8779 -5.65742 46.8612 -2.14666 51.4176 16.4729C54.2587 28.0829 43.5037 40.025 41.5717 58.5605C39.6398 77.0961 29.9809 71.6604 28.6099 68.2792C24.0371 57.0026 40.8257 29.3387 37.2206 21.9999Z" stroke="#F4F8F8" stroke-width="3"/>
<path id="Ellipse 1" d="M41.7838 86.9819C41.1869 91.3052 37.371 94.2046 33.3676 93.6035C29.3641 93.0024 26.4877 89.0983 27.0846 84.775C27.6815 80.4517 31.4973 77.5524 35.5008 78.1535C39.5042 78.7545 42.3807 82.6587 41.7838 86.9819Z" stroke="#F4F8F8" stroke-width="3"/>
</g>
</svg>
