<svg width="57" height="57" viewBox="0 0 57 57" fill="none" xmlns="http://www.w3.org/2000/svg">
<g id="searchIcon">
<g id="Union">
<mask id="path-1-inside-1" fill="white">
<path fill-rule="evenodd" clip-rule="evenodd" d="M45.069 36.9858C47.2419 33.3937 48.4924 29.1814 48.4924 24.6769C48.4924 11.524 37.8299 0.861435 24.6769 0.861435C11.524 0.861435 0.861435 11.524 0.861435 24.6769C0.861435 37.8299 11.524 48.4924 24.6769 48.4924C29.1814 48.4924 33.3937 47.2419 36.9858 45.069L47.2427 55.3259C49.4748 57.558 53.0938 57.558 55.3259 55.3259C57.558 53.0938 57.558 49.4748 55.3259 47.2427L45.069 36.9858Z"/>
</mask>
<path d="M45.069 36.9858L42.5021 35.4331L41.2853 37.4447L42.9477 39.1071L45.069 36.9858ZM36.9858 45.069L39.1071 42.9477L37.4447 41.2853L35.433 42.5021L36.9858 45.069ZM47.2427 55.3259L45.1213 57.4472L45.1213 57.4472L47.2427 55.3259ZM55.3259 55.3259L53.2046 53.2046L53.2046 53.2046L55.3259 55.3259ZM55.3259 47.2427L53.2046 49.364L53.2046 49.364L55.3259 47.2427ZM45.4924 24.6769C45.4924 28.6188 44.3996 32.2962 42.5021 35.4331L47.6359 38.5385C50.0841 34.4913 51.4924 29.744 51.4924 24.6769H45.4924ZM24.6769 3.86143C36.173 3.86143 45.4924 13.1808 45.4924 24.6769H51.4924C51.4924 9.86714 39.4867 -2.13857 24.6769 -2.13857V3.86143ZM3.86143 24.6769C3.86143 13.1808 13.1808 3.86143 24.6769 3.86143V-2.13857C9.86714 -2.13857 -2.13857 9.86714 -2.13857 24.6769H3.86143ZM24.6769 45.4924C13.1808 45.4924 3.86143 36.173 3.86143 24.6769H-2.13857C-2.13857 39.4867 9.86714 51.4924 24.6769 51.4924V45.4924ZM35.433 42.5021C32.2962 44.3996 28.6187 45.4924 24.6769 45.4924V51.4924C29.744 51.4924 34.4913 50.0841 38.5385 47.6359L35.433 42.5021ZM49.364 53.2046L39.1071 42.9477L34.8645 47.1904L45.1213 57.4472L49.364 53.2046ZM53.2046 53.2046C52.144 54.2651 50.4245 54.2651 49.364 53.2046L45.1213 57.4472C48.525 60.8509 54.0435 60.8509 57.4472 57.4472L53.2046 53.2046ZM53.2046 49.364C54.2651 50.4245 54.2651 52.144 53.2046 53.2046L57.4472 57.4472C60.8509 54.0435 60.8509 48.525 57.4472 45.1213L53.2046 49.364ZM42.9477 39.1071L53.2046 49.364L57.4472 45.1213L47.1903 34.8645L42.9477 39.1071Z" fill="#A6A3A3" mask="url(#path-1-inside-1)"/>
</g>
<circle id="Ellipse 4" cx="25" cy="25" r="12.5" stroke="#A6A3A3" stroke-width="3"/>
</g>
</svg>
