<svg width="57" height="57" viewBox="0 0 57 57" fill="none" xmlns="http://www.w3.org/2000/svg">
<g id="searchIcon">
<g id="Union">
<mask id="path-1-inside-1" fill="white">
<path fill-rule="evenodd" clip-rule="evenodd" d="M45.069 36.9858C47.2419 33.3937 48.4924 29.1814 48.4924 24.6769C48.4924 11.524 37.8299 0.861435 24.6769 0.861435C11.524 0.861435 0.861435 11.524 0.861435 24.6769C0.861435 37.8299 11.524 48.4924 24.6769 48.4924C29.1814 48.4924 33.3937 47.2419 36.9858 45.069L47.2427 55.3259C49.4748 57.558 53.0938 57.558 55.3259 55.3259C57.558 53.0938 57.558 49.4748 55.3259 47.2427L45.069 36.9858Z"/>
</mask>
<path d="M45.069 36.9858L44.2134 36.4682L43.8078 37.1387L44.3619 37.6929L45.069 36.9858ZM36.9858 45.069L37.6929 44.3619L37.1387 43.8078L36.4682 44.2134L36.9858 45.069ZM47.2427 55.3259L46.5355 56.033L46.5356 56.033L47.2427 55.3259ZM55.3259 55.3259L54.6188 54.6188L54.6188 54.6188L55.3259 55.3259ZM55.3259 47.2427L54.6188 47.9498L54.6188 47.9498L55.3259 47.2427ZM47.4924 24.6769C47.4924 28.9938 46.2945 33.0279 44.2134 36.4682L45.9247 37.5034C48.1893 33.7596 49.4924 29.3689 49.4924 24.6769H47.4924ZM24.6769 1.86143C37.2776 1.86143 47.4924 12.0763 47.4924 24.6769H49.4924C49.4924 10.9717 38.3821 -0.138565 24.6769 -0.138565V1.86143ZM1.86143 24.6769C1.86143 12.0763 12.0763 1.86143 24.6769 1.86143V-0.138565C10.9717 -0.138565 -0.138565 10.9717 -0.138565 24.6769H1.86143ZM24.6769 47.4924C12.0763 47.4924 1.86143 37.2776 1.86143 24.6769H-0.138565C-0.138565 38.3821 10.9717 49.4924 24.6769 49.4924V47.4924ZM36.4682 44.2134C33.0279 46.2945 28.9938 47.4924 24.6769 47.4924V49.4924C29.3689 49.4924 33.7596 48.1893 37.5034 45.9247L36.4682 44.2134ZM47.9498 54.6188L37.6929 44.3619L36.2787 45.7761L46.5355 56.033L47.9498 54.6188ZM54.6188 54.6188C52.7772 56.4604 49.7914 56.4604 47.9498 54.6188L46.5356 56.033C49.1582 58.6557 53.4104 58.6557 56.033 56.033L54.6188 54.6188ZM54.6188 47.9498C56.4604 49.7914 56.4604 52.7772 54.6188 54.6188L56.033 56.033C58.6557 53.4104 58.6557 49.1582 56.033 46.5355L54.6188 47.9498ZM44.3619 37.6929L54.6188 47.9498L56.033 46.5355L45.7761 36.2787L44.3619 37.6929Z" fill="#837D7D" mask="url(#path-1-inside-1)"/>
</g>
<circle id="Ellipse 4" cx="25" cy="25" r="13.5" stroke="#837D7D"/>
</g>
</svg>
